<?xml version="1.0" encoding="UTF-8" standalone="no"?>
<svg width="1165px" height="104px" viewBox="0 0 1165 104" version="1.1" xmlns="http://www.w3.org/2000/svg" xmlns:xlink="http://www.w3.org/1999/xlink" xmlns:sketch="http://www.bohemiancoding.com/sketch/ns">
    <title>fm-logo</title>
    <description>Created with Sketch (http://www.bohemiancoding.com/sketch)</description>
    <defs></defs>
    <g id="Page-1" stroke="none" stroke-width="1" fill="none" fill-rule="evenodd" sketch:type="MSPage">
        <path d="M39.203125,19.484375 L39.203125,104 L8.0546875,104 L8.0546875,47.9609375 L0.671875,47.9609375 L0.671875,29.328125 L8.0546875,29.328125 L8.0546875,18.2890625 L26.828125,0.8515625 L61.703125,0.8515625 L61.703125,19.484375 L39.203125,19.484375 Z M43.9140625,47.9609375 L44.125,29.328125 L61.703125,29.328125 L61.703125,47.9609375 L43.9140625,47.9609375 Z M69.15625,29.328125 L100.304688,29.328125 L100.304688,104 L69.15625,104 L69.15625,29.328125 Z M69.15625,0.21875 L100.304688,0.21875 L100.304688,20.046875 L69.15625,20.046875 L69.15625,0.21875 Z M146.921875,85.3671875 L167.453125,85.3671875 L167.453125,104 L134.546875,104 L115.84375,85.3671875 L115.84375,47.9609375 L109.65625,47.9609375 L109.65625,29.328125 L115.84375,29.328125 L115.84375,21.2421875 L146.921875,10.6953125 L146.921875,85.3671875 Z M151.84375,47.9609375 L151.84375,29.328125 L168.578125,29.328125 L168.578125,47.9609375 L151.84375,47.9609375 Z M217.65625,104 L217.65625,29.328125 L248.804688,29.328125 L248.804688,104 L217.65625,104 Z M266.382812,47.9609375 L253.726562,47.9609375 L253.726562,39.171875 L263.5,29.328125 L287.546875,29.328125 L297.53125,39.3125 L297.53125,104 L266.382812,104 L266.382812,47.9609375 Z M315.109375,47.9609375 L302.453125,47.9609375 L302.453125,39.3125 L312.015625,29.328125 L331,29.328125 L346.1875,44.65625 L346.1875,104 L315.109375,104 L315.109375,47.9609375 Z M360.320313,29.328125 L391.46875,29.328125 L391.46875,104 L360.320313,104 L360.320313,29.328125 Z M360.320313,0.21875 L391.46875,0.21875 L391.46875,20.046875 L360.320313,20.046875 L360.320313,0.21875 Z M422.40625,29.328125 L434.851562,29.328125 L434.851562,55.6953125 L470.289062,55.6953125 L486.460938,72.0078125 L486.460938,86.5625 L469.09375,104 L455.382812,104 L455.382812,75.8046875 L421.773438,75.8046875 L405.601562,60.265625 L405.601562,46.0625 L422.40625,29.328125 Z M436.679688,90.2890625 L450.460938,90.2890625 L450.460938,104 L418.46875,103.929688 L405.53125,88.6015625 L405.53125,82.625 L436.679688,82.625 L436.679688,90.2890625 Z M455.382812,43.0390625 L439.773438,43.0390625 L439.773438,29.328125 L472.820312,29.328125 L483.929688,40.4375 L483.929688,48.875 L455.382812,48.875 L455.382812,43.0390625 Z M514.867188,29.328125 L527.3125,29.328125 L527.3125,55.6953125 L562.75,55.6953125 L578.921875,72.0078125 L578.921875,86.5625 L561.554688,104 L547.84375,104 L547.84375,75.8046875 L514.234375,75.8046875 L498.0625,60.265625 L498.0625,46.0625 L514.867188,29.328125 Z M529.140625,90.2890625 L542.921875,90.2890625 L542.921875,104 L510.929688,103.929688 L497.992188,88.6015625 L497.992188,82.625 L529.140625,82.625 L529.140625,90.2890625 Z M547.84375,43.0390625 L532.234375,43.0390625 L532.234375,29.328125 L565.28125,29.328125 L576.390625,40.4375 L576.390625,48.875 L547.84375,48.875 L547.84375,43.0390625 Z M662.242188,19.484375 L662.242188,104 L631.09375,104 L631.09375,47.9609375 L623.710938,47.9609375 L623.710938,29.328125 L631.09375,29.328125 L631.09375,18.2890625 L649.867188,0.8515625 L684.742188,0.8515625 L684.742188,19.484375 L662.242188,19.484375 Z M666.953125,47.9609375 L667.164062,29.328125 L684.742188,29.328125 L684.742188,47.9609375 L666.953125,47.9609375 Z M692.195312,29.328125 L723.34375,29.328125 L723.34375,104 L692.195312,104 L692.195312,29.328125 Z M692.195312,0.21875 L723.34375,0.21875 L723.34375,20.046875 L692.195312,20.046875 L692.195312,0.21875 Z M769.960938,85.3671875 L790.492188,85.3671875 L790.492188,104 L757.585938,104 L738.882812,85.3671875 L738.882812,47.9609375 L732.695312,47.9609375 L732.695312,29.328125 L738.882812,29.328125 L738.882812,21.2421875 L769.960938,10.6953125 L769.960938,85.3671875 Z M774.882812,47.9609375 L774.882812,29.328125 L791.617188,29.328125 L791.617188,47.9609375 L774.882812,47.9609375 Z M802.375,104 L802.375,29.328125 L833.734375,29.328125 L833.734375,104 L802.375,104 Z M852.15625,47.9609375 L838.796875,47.9609375 L838.796875,39.8046875 L849.203125,29.328125 L866.5,29.328125 L883.304688,46.1328125 L883.304688,104 L852.15625,104 L852.15625,47.9609375 Z M928.164062,104 L915.71875,104 L897.085937,85.3671875 L897.085937,47.9609375 L915.71875,29.328125 L928.164062,29.328125 L928.164062,104 Z M933.085938,74.046875 L933.085938,61.0390625 L949.46875,61.0390625 L949.46875,47.9609375 L933.085938,47.9609375 L933.085938,29.328125 L959.453125,29.328125 L978.085938,47.9609375 L978.085938,74.046875 L933.085938,74.046875 Z M933.085938,104 L933.085938,86.5625 L974.851562,86.5625 L974.851562,94.6484375 L965.570312,104 L933.085938,104 Z M1007.54688,29.328125 L1019.99219,29.328125 L1019.99219,55.6953125 L1055.42969,55.6953125 L1071.60156,72.0078125 L1071.60156,86.5625 L1054.23438,104 L1040.52344,104 L1040.52344,75.8046875 L1006.91406,75.8046875 L990.742188,60.265625 L990.742188,46.0625 L1007.54688,29.328125 Z M1021.82031,90.2890625 L1035.60156,90.2890625 L1035.60156,104 L1003.60938,103.929688 L990.671875,88.6015625 L990.671875,82.625 L1021.82031,82.625 L1021.82031,90.2890625 Z M1040.52344,43.0390625 L1024.91406,43.0390625 L1024.91406,29.328125 L1057.96094,29.328125 L1069.07031,40.4375 L1069.07031,48.875 L1040.52344,48.875 L1040.52344,43.0390625 Z M1100.00781,29.328125 L1112.45312,29.328125 L1112.45312,55.6953125 L1147.89062,55.6953125 L1164.0625,72.0078125 L1164.0625,86.5625 L1146.69531,104 L1132.98438,104 L1132.98438,75.8046875 L1099.375,75.8046875 L1083.20312,60.265625 L1083.20312,46.0625 L1100.00781,29.328125 Z M1114.28125,90.2890625 L1128.0625,90.2890625 L1128.0625,104 L1096.07031,103.929688 L1083.13281,88.6015625 L1083.13281,82.625 L1114.28125,82.625 L1114.28125,90.2890625 Z M1132.98438,43.0390625 L1117.375,43.0390625 L1117.375,29.328125 L1150.42188,29.328125 L1161.53125,40.4375 L1161.53125,48.875 L1132.98438,48.875 L1132.98438,43.0390625 Z" id="fit-miss-fitness" fill="#000000" sketch:type="MSShapeGroup"></path>
    </g>
</svg>